<?xml version="1.0" standalone="no"?>
<!DOCTYPE svg PUBLIC "-//W3C//DTD SVG 20010904//EN"
 "http://www.w3.org/TR/2001/REC-SVG-20010904/DTD/svg10.dtd">
<svg version="1.0" xmlns="http://www.w3.org/2000/svg"
 width="376.000000pt" height="383.000000pt" viewBox="0 0 376.000000 383.000000"
 preserveAspectRatio="xMidYMid meet">

<g transform="translate(0.000000,383.000000) scale(0.100000,-0.100000)"
 stroke="none">
<path d="M90 1910 l0 -1860 1795 0 1795 0 0 1860 0 1860 -1795 0 -1795 0 0
-1860z m3480 1445 l0 -325 -1690 0 -1690 0 0 325 0 325 1690 0 1690 0 0 -325z
m0 -1360 l0 -955 -1690 0 -1690 0 0 955 0 955 1690 0 1690 0 0 -955z m-3250
-1120 l66 -66 62 66 c34 37 68 65 74 63 10 -4 13 -44 13 -159 0 -168 -1 -170
-61 -155 -22 6 -24 11 -24 68 l0 62 -34 -33 -35 -34 -30 31 -31 30 -2 -31 c-1
-18 -2 -42 -2 -54 -1 -31 -19 -45 -52 -41 l-29 3 -3 145 c-3 142 0 170 15 170
4 0 37 -29 73 -65z m450 10 c74 -149 111 -237 106 -250 -8 -21 -53 -18 -76 5
-29 29 -119 28 -145 0 -26 -29 -81 -24 -78 6 1 12 32 83 67 158 75 156 85 163
126 81z m320 40 c31 -16 50 -43 50 -69 0 -12 -10 -16 -39 -16 -22 0 -43 5 -46
10 -3 6 -19 10 -36 10 -42 0 -41 -36 1 -44 17 -3 44 -9 60 -12 44 -8 70 -40
70 -85 0 -67 -70 -110 -158 -96 -41 7 -95 58 -90 85 4 23 55 28 78 7 22 -20
85 -17 85 5 0 9 -19 18 -59 26 -73 15 -101 40 -101 93 0 41 23 77 60 92 33 13
94 10 125 -6z m315 -25 c0 -32 -3 -35 -35 -40 l-35 -5 -3 -112 c-3 -110 -3
-113 -27 -119 -50 -12 -54 -3 -57 118 l-3 113 -35 5 c-27 4 -36 10 -38 28 -7
50 -1 53 120 50 l113 -3 0 -35z m230 0 l0 -35 -53 -3 c-44 -3 -53 -6 -50 -20
2 -13 15 -18 51 -20 46 -3 47 -4 47 -38 l0 -34 -50 0 c-47 0 -50 -2 -50 -25 0
-24 3 -25 55 -25 50 0 55 -2 61 -25 11 -44 -9 -55 -100 -55 -50 0 -87 5 -94
12 -13 13 -18 289 -5 302 4 4 48 5 98 4 l90 -3 0 -35z m275 5 c41 -39 48 -85
21 -130 -26 -45 -26 -47 5 -95 30 -45 25 -60 -19 -60 -40 0 -47 6 -76 53 -32
52 -61 51 -61 -3 0 -35 -3 -40 -27 -46 -52 -13 -58 0 -61 151 -2 98 1 141 10
152 10 12 30 14 95 11 75 -4 86 -7 113 -33z m424 21 c35 -15 76 -63 76 -90 0
-25 -72 -22 -95 4 -21 23 -71 26 -98 5 -10 -7 -21 -31 -24 -52 -11 -80 73
-125 127 -68 26 28 77 34 86 10 9 -23 -28 -78 -66 -98 -45 -23 -130 -19 -167
9 -52 39 -68 71 -68 134 1 66 18 99 75 138 38 26 103 29 154 8z m204 -108 l3
-117 52 -3 52 -3 0 -35 0 -35 -84 -3 c-46 -2 -88 1 -92 5 -5 5 -11 70 -15 145
-8 155 -3 171 50 166 l31 -3 3 -117z m347 82 l0 -35 -55 -5 c-30 -3 -54 -8
-52 -12 1 -5 2 -12 2 -18 0 -5 23 -10 50 -10 l50 0 0 -35 0 -35 -49 0 c-35 0
-51 -4 -55 -16 -10 -27 3 -34 60 -34 l55 0 -3 -37 -3 -38 -75 -3 c-128 -5
-120 -16 -120 157 0 81 3 151 7 155 4 4 48 5 98 4 l90 -3 0 -35z m251 -57 c25
-54 57 -122 70 -151 14 -29 22 -57 19 -62 -11 -18 -64 -11 -82 10 -14 16 -30
20 -73 20 -43 0 -59 -4 -73 -20 -23 -28 -77 -28 -77 0 0 11 4 28 10 38 12 21
99 208 111 240 5 13 17 22 29 22 16 0 30 -21 66 -97z m229 26 l74 -71 5 33 c3
19 4 46 2 61 -4 34 14 50 51 46 27 -3 28 -5 33 -78 7 -106 -2 -235 -17 -235
-6 0 -43 30 -82 68 -39 37 -72 67 -75 67 -3 0 -6 -30 -8 -67 l-3 -68 -40 0
-40 0 -3 145 c-1 79 0 150 2 157 10 24 28 13 101 -58z m-882 -415 c11 -12 -18
-44 -40 -44 -26 0 -27 3 -13 31 10 18 40 26 53 13z m-1533 -139 l0 -75 35 0
c31 0 35 -3 35 -25 0 -25 -1 -26 -62 -23 l-63 3 -3 84 c-3 100 0 111 33 111
25 0 25 -1 25 -75z m229 -11 c48 -101 50 -114 16 -114 -14 0 -25 5 -25 10 0
13 -77 13 -85 0 -9 -14 -55 -12 -55 2 0 24 83 188 95 188 7 0 31 -39 54 -86z
m117 36 c10 -27 20 -50 23 -50 4 0 16 23 28 50 15 35 28 50 41 50 10 0 21 -2
24 -6 3 -3 -12 -48 -35 -100 -27 -62 -46 -94 -56 -94 -11 0 -30 32 -57 95 -23
52 -39 97 -36 100 3 3 15 5 28 5 17 0 26 -10 40 -50z m279 -50 l45 -95 -26 -3
c-15 -2 -31 1 -37 7 -14 14 -74 14 -82 1 -8 -13 -55 -13 -55 -1 0 5 8 29 19
53 49 115 63 139 77 136 8 -2 35 -46 59 -98z m127 53 l48 -47 0 48 c0 46 1 47
28 44 l27 -3 3 -97 c3 -114 -3 -120 -63 -58 -21 22 -43 40 -47 40 -4 0 -8 -18
-8 -40 0 -38 -2 -40 -30 -40 l-30 0 0 93 c0 86 4 107 19 107 3 0 27 -21 53
-47z m281 23 c47 -43 48 -106 2 -152 -20 -19 -34 -24 -78 -24 -64 0 -67 5 -67
107 0 89 3 93 65 93 41 0 57 -5 78 -24z m192 -1 c0 -16 -8 -21 -37 -23 -47 -4
-50 -20 -5 -24 24 -2 33 -8 35 -25 3 -18 -2 -22 -29 -25 -47 -4 -49 -26 -2
-30 31 -2 39 -7 41 -26 3 -22 1 -23 -65 -20 l-68 3 -3 84 c-2 46 0 91 2 98 4
10 22 13 68 11 55 -3 63 -5 63 -23z m172 -1 c20 -20 24 -31 19 -57 -3 -17 -11
-34 -17 -37 -6 -5 -2 -20 11 -43 l22 -37 -34 0 c-27 0 -37 6 -52 30 -19 34
-36 31 -36 -6 0 -19 -5 -24 -25 -24 l-25 0 0 100 0 100 55 0 c47 0 60 -4 82
-26z m150 10 c4 -10 -1 -22 -10 -29 -11 -8 -17 -27 -17 -55 0 -28 6 -47 17
-55 31 -23 9 -45 -47 -45 -44 0 -50 3 -50 20 0 11 7 23 15 26 22 9 20 93 -2
109 -30 22 -9 45 42 45 33 0 47 -5 52 -16z m169 -79 c24 -52 44 -97 44 -100 0
-3 -13 -5 -30 -5 -16 0 -30 5 -30 10 0 13 -77 13 -85 0 -8 -12 -55 -13 -55 -1
0 24 85 191 97 191 8 0 34 -42 59 -95z m186 78 c35 -31 14 -65 -27 -43 -28 15
-69 5 -45 -10 8 -6 24 -10 35 -10 62 0 88 -74 39 -107 -37 -24 -90 -22 -116 4
-27 28 -18 58 15 48 49 -15 67 -17 67 -7 0 6 -16 14 -35 18 -44 8 -65 28 -65
60 0 55 88 87 132 47z"/>
<path d="M3086 3555 c-112 -40 -168 -179 -116 -293 89 -196 390 -150 408 62 6
80 -4 117 -45 166 -63 74 -155 98 -247 65z m156 -117 c62 -43 58 -148 -6 -188
-100 -61 -218 26 -181 134 27 79 115 104 187 54z"/>
<path d="M380 3345 l0 -215 660 0 660 0 0 215 0 215 -660 0 -660 0 0 -215z
m1230 5 l0 -120 -570 0 -570 0 0 120 0 120 570 0 570 0 0 -120z"/>
<path d="M2525 3543 c-156 -81 -168 -285 -23 -380 36 -24 51 -28 117 -28 67 0
81 4 119 29 132 89 129 281 -6 367 -39 25 -56 29 -111 29 -40 -1 -78 -7 -96
-17z m162 -93 c44 -26 62 -85 42 -136 -20 -52 -60 -79 -116 -78 -40 1 -51 6
-81 39 -31 34 -34 41 -30 86 5 51 27 85 63 100 35 14 89 9 122 -11z"/>
<path d="M1700 2607 c-104 -31 -173 -71 -252 -146 -85 -80 -140 -163 -175
-266 -25 -70 -28 -95 -28 -200 1 -105 4 -130 29 -203 77 -229 270 -390 511
-430 85 -14 104 -14 188 0 246 40 431 194 514 430 23 64 27 89 27 198 0 109
-4 135 -27 205 -34 101 -89 185 -175 266 -123 116 -261 169 -437 168 -73 0
-120 -6 -175 -22z m356 -82 c208 -65 362 -260 381 -481 7 -81 -4 -184 -18
-184 -6 0 -22 14 -36 30 -38 46 -87 42 -138 -10 -30 -31 -47 -40 -72 -40 -26
0 -43 9 -73 40 -30 31 -47 40 -73 40 -25 0 -42 -9 -72 -40 -31 -32 -46 -40
-75 -40 -29 0 -44 8 -75 40 -30 30 -47 40 -72 40 -24 0 -42 -10 -72 -40 -30
-31 -47 -40 -73 -40 -26 0 -43 9 -73 40 -51 52 -100 56 -138 10 -14 -17 -30
-30 -35 -30 -5 0 -12 21 -16 46 -25 187 28 350 158 480 156 156 359 206 572
139z"/>
<path d="M1817 2494 c-10 -10 -9 -42 2 -48 14 -9 41 5 41 21 0 8 -4 12 -9 8
-6 -3 -14 2 -18 10 -5 9 -12 12 -16 9z"/>
<path d="M2016 2403 c-13 -13 -5 -33 14 -33 11 0 20 3 20 6 0 11 -28 33 -34
27z"/>
<path d="M1670 2370 c0 -6 7 -10 15 -10 8 0 15 2 15 4 0 2 -7 6 -15 10 -8 3
-15 1 -15 -4z"/>
<path d="M1826 2344 c-3 -9 0 -21 7 -29 11 -11 15 -10 24 4 9 14 7 20 -7 29
-14 9 -19 8 -24 -4z"/>
<path d="M1511 2321 c-10 -6 -10 -10 -1 -16 13 -8 24 -1 19 14 -3 6 -10 7 -18
2z"/>
<path d="M2143 2292 c-9 -15 -8 -21 6 -29 13 -8 22 -6 39 7 19 16 20 18 4 24
-9 3 -22 8 -27 11 -6 3 -15 -3 -22 -13z"/>
<path d="M1596 2278 c-11 -6 -50 -35 -88 -64 -37 -29 -73 -54 -79 -56 -7 -2 2
-35 26 -90 l38 -87 29 20 c16 12 32 18 35 15 3 -3 1 -30 -6 -59 -11 -52 -8
-87 9 -87 5 0 15 -3 24 -6 9 -3 33 11 62 38 40 37 53 43 89 43 36 0 49 -6 88
-42 26 -24 51 -43 56 -43 5 0 31 18 56 40 25 22 58 43 73 46 15 4 30 12 34 18
5 7 18 2 39 -13 19 -14 34 -20 36 -14 2 6 24 37 48 69 25 33 45 62 45 66 0 13
-162 177 -181 183 -26 8 -56 -10 -74 -46 -22 -42 -83 -107 -116 -125 -32 -16
-77 -18 -99 -4 -11 7 -4 10 26 10 44 0 83 23 129 78 l27 32 -27 -10 c-57 -22
-129 -8 -174 33 l-24 22 24 -39 c14 -21 42 -48 64 -60 22 -11 42 -22 44 -23 2
-2 2 -6 -2 -9 -12 -12 -77 19 -105 50 -16 18 -37 54 -48 79 -20 49 -39 58 -78
35z"/>
<path d="M1910 2280 c0 -5 7 -10 16 -10 8 0 12 5 9 10 -3 6 -10 10 -16 10 -5
0 -9 -4 -9 -10z"/>
<path d="M1405 2220 c-8 -14 3 -30 21 -30 18 0 18 8 0 26 -9 9 -17 10 -21 4z"/>
<path d="M2294 2165 c-10 -25 4 -47 28 -43 16 2 24 11 26 28 2 18 0 21 -6 11
-11 -15 -36 -6 -27 10 4 5 1 9 -5 9 -6 0 -13 -7 -16 -15z"/>
<path d="M2279 2021 c-10 -4 -13 -13 -10 -28 5 -18 9 -20 22 -10 20 15 10 47
-12 38z"/>
<path d="M1390 1985 c0 -8 7 -15 15 -15 8 0 15 4 15 9 0 5 -7 11 -15 15 -9 3
-15 0 -15 -9z"/>
<path d="M717 776 c-11 -28 -8 -36 13 -36 23 0 25 9 7 34 -13 18 -14 18 -20 2z"/>
<path d="M1782 828 c2 -27 8 -34 29 -36 31 -4 53 20 44 48 -5 15 -15 20 -41
20 -34 0 -35 -1 -32 -32z"/>
<path d="M3061 772 c-15 -28 -14 -32 9 -32 21 0 26 16 11 39 -7 11 -11 10 -20
-7z"/>
<path d="M1510 280 c0 -5 5 -10 11 -10 5 0 7 5 4 10 -3 6 -8 10 -11 10 -2 0
-4 -4 -4 -10z"/>
<path d="M1900 290 c0 -41 3 -50 18 -50 25 0 42 20 42 50 0 30 -17 50 -42 50
-15 0 -18 -9 -18 -50z"/>
<path d="M2260 321 c0 -16 6 -21 26 -21 33 0 30 33 -4 38 -17 3 -22 -2 -22
-17z"/>
<path d="M2600 280 c0 -5 5 -10 10 -10 6 0 10 5 10 10 0 6 -4 10 -10 10 -5 0
-10 -4 -10 -10z"/>
</g>
</svg>
